<svg version="1.1" id="Layer_1" xmlns="http://www.w3.org/2000/svg" xmlns:xlink="http://www.w3.org/1999/xlink" x="0px" y="0px" viewBox="0 0 113.9 25.2" style="enable-background:new 0 0 113.9 25.2;" xml:space="preserve">
 <g>
  <path d="M11.4,25c-3.2,0-6.4,0-9.6,0c-0.3,0-0.6,0-0.8-0.1c-0.5-0.1-0.8-0.4-0.9-0.9c0-0.3,0-0.6-0.1-0.8c0-3.7,0-7.4,0-11.2
		c0-0.3,0-0.6,0-1c0-0.6,0.3-1.1,0.7-1.5C2.1,8.3,3.5,7,4.9,5.7c1.5-1.4,3.1-2.9,4.6-4.3c0.4-0.4,0.8-0.7,1.2-1.1
		c0.5-0.4,1-0.4,1.5,0c2,1.8,3.9,3.6,5.9,5.5c1.3,1.2,2.6,2.4,3.9,3.6c0.2,0.2,0.5,0.5,0.7,0.8c0.3,0.4,0.3,0.9,0.3,1.4
		c0,1.1,0,2.2,0,3.3c0,2.7,0,5.4,0,8.2c0,0.3,0,0.7-0.1,1c-0.1,0.4-0.3,0.8-0.8,0.8c-0.3,0-0.6,0.1-0.9,0.1C17.9,25,14.7,25,11.4,25
		z M11.5,20.1c1.9,0,3.9,0,5.8,0c0.7,0,0.7,0,0.7-0.7c0-2.2,0-4.4,0-6.5c0-0.3-0.1-0.5-0.3-0.7c-2-1.8-4-3.7-5.9-5.5
		c-0.3-0.3-0.3-0.3-0.6,0c-1.9,1.8-3.8,3.5-5.6,5.3c-0.4,0.3-0.5,0.7-0.5,1.2c0,2.1,0,4.1,0,6.2c0,0.1,0,0.2,0,0.3
		C5,20,5,20,5.3,20.1c0.1,0,0.3,0,0.4,0C7.7,20.1,9.6,20.1,11.5,20.1z">
  </path>
  <path d="M89.6,9c0.1-0.2,0.2-0.3,0.4-0.5c0.6-0.7,1.3-1,2.1-1.4c1.1-0.5,2.3-0.5,3.5-0.3c1.5,0.2,2.8,0.8,3.7,2
		c0.4,0.5,0.8,1.2,1,1.8c0.4,1.1,0.6,2.2,0.6,3.4c0,3.4,0,6.8,0,10.2c0,0.1,0,0.1,0,0.2c0,0.5,0,0.5-0.5,0.5c-1.3,0-2.6,0-3.9,0
		c-0.5,0-0.5,0-0.5-0.6c0-3.1,0-6.2,0-9.3c0-0.4,0-0.7,0-1.1c-0.1-0.9-0.4-1.7-1.2-2.3c-0.4-0.3-0.8-0.4-1.2-0.4
		c-0.9-0.1-1.8-0.1-2.6,0.5c-0.5,0.3-0.8,0.8-1,1.3c-0.3,0.7-0.4,1.4-0.4,2.2c0,3,0,6.1,0,9.1c0,0.1,0,0.2,0,0.3
		c0,0.3-0.1,0.3-0.3,0.4c-0.1,0-0.2,0-0.3,0c-1.2,0-2.4,0-3.6,0c-0.1,0-0.2,0-0.3,0c-0.2,0-0.4-0.1-0.3-0.4c0-0.1,0-0.2,0-0.3
		c0-5.5,0-10.9,0-16.4c0-0.8,0-0.7,0.7-0.7c1.2,0,2.5,0,3.7,0c0.5,0,0.5,0,0.5,0.5c0,0.4,0,0.8,0,1.2C89.5,8.9,89.5,9,89.6,9z">
  </path>
  <path d="M39.4,18.9c0.4-1,0.7-1.8,1-2.7c0.3-0.8,0.5-1.6,0.8-2.3c0.3-0.8,0.6-1.5,0.8-2.3c0.2-0.6,0.4-1.2,0.6-1.8
		c0.2-0.6,0.4-1.2,0.7-1.8c0.1-0.2,0.2-0.4,0.2-0.6c0.1-0.2,0.2-0.2,0.4-0.2c0.3,0,0.6,0,0.9,0c1.1,0,2.3,0,3.4,0c0.1,0,0.2,0,0.3,0
		c0.2,0,0.3,0.1,0.2,0.3c-0.2,0.5-0.4,0.9-0.5,1.4c-0.3,0.7-0.5,1.4-0.8,2.1c-0.3,0.7-0.6,1.4-0.9,2.1c-0.3,0.7-0.5,1.4-0.8,2.1
		c-0.3,0.9-0.7,1.7-1,2.6c-0.3,0.7-0.5,1.4-0.8,2.1c-0.3,0.7-0.5,1.3-0.8,2c-0.2,0.6-0.4,1.1-0.7,1.7c-0.2,0.5-0.4,0.9-0.6,1.4
		c0,0.1-0.1,0.1-0.2,0.1c-0.1,0-0.2,0-0.3,0c-1.3,0-2.6,0-3.9,0c-0.5,0-0.6,0-0.7-0.5c-0.3-0.7-0.6-1.4-0.8-2.1
		c-0.3-0.7-0.5-1.4-0.8-2.1c-0.3-0.8-0.7-1.6-1-2.4c-0.3-0.7-0.5-1.4-0.8-2.1c-0.2-0.5-0.4-1.1-0.6-1.6c-0.3-0.7-0.6-1.4-0.8-2.1
		c-0.3-0.7-0.5-1.3-0.8-2c-0.3-0.7-0.6-1.4-0.9-2.1c-0.1-0.2-0.1-0.3-0.2-0.5c0-0.2,0-0.3,0.2-0.3c0.1,0,0.2,0,0.3,0
		c1.3,0,2.7,0,4,0c0.7,0,0.7,0,0.9,0.7c0.2,0.7,0.5,1.4,0.7,2.1c0.3,0.8,0.5,1.5,0.8,2.3c0.3,0.8,0.6,1.6,0.8,2.3
		c0.2,0.6,0.4,1.2,0.6,1.8c0.1,0.4,0.3,0.8,0.4,1.2c0.1,0.3,0.2,0.6,0.3,0.8C39.3,18.6,39.3,18.7,39.4,18.9z">
  </path>
  <path d="M66,18.8c0.1-0.3,0.3-0.6,0.4-0.9c0.2-0.5,0.3-1,0.5-1.4c0.2-0.6,0.4-1.2,0.6-1.8c0.2-0.4,0.3-0.9,0.5-1.3
		c0.1-0.4,0.3-0.8,0.4-1.2c0.2-0.5,0.3-0.9,0.5-1.4c0.1-0.4,0.3-0.8,0.4-1.2c0.2-0.6,0.5-1.3,0.7-1.9c0.1-0.5,0.4-0.5,0.7-0.5
		c1.4,0,2.9,0,4.3,0c0.4,0,0.5,0.1,0.3,0.5c-0.3,0.7-0.6,1.4-0.9,2.2c-0.3,0.7-0.5,1.3-0.8,2c-0.3,0.7-0.6,1.4-0.8,2.1
		c-0.3,0.7-0.6,1.4-0.9,2.1c-0.3,0.7-0.5,1.4-0.8,2c-0.3,0.9-0.7,1.7-1,2.6c-0.3,0.7-0.5,1.4-0.8,2.1c-0.3,0.7-0.5,1.3-0.8,2
		C68.5,24.9,68.3,25,68,25c-1.3,0-2.7,0-4,0c-0.5,0-0.6-0.3-0.7-0.7c-0.4-1.1-0.9-2.1-1.3-3.2c-0.3-0.8-0.6-1.7-1-2.5
		c-0.3-0.8-0.7-1.6-1-2.5c-0.3-0.7-0.5-1.4-0.8-2.1c-0.2-0.5-0.4-1-0.6-1.5c-0.3-0.7-0.6-1.4-0.8-2.1c-0.2-0.5-0.4-1-0.6-1.6
		c-0.2-0.5-0.4-1-0.6-1.5c-0.1-0.1,0-0.2,0.1-0.2c0.1,0,0.2,0,0.3,0c1.4,0,2.8,0,4.3,0c0.5,0,0.6,0,0.7,0.5c0.2,0.7,0.5,1.3,0.7,2
		c0.2,0.6,0.4,1.2,0.6,1.8c0.3,0.8,0.6,1.5,0.8,2.3c0.2,0.6,0.4,1.2,0.6,1.8c0.3,0.8,0.5,1.5,0.8,2.3C65.7,18.2,65.8,18.5,66,18.8
		C66,18.8,66,18.8,66,18.8z">
  </path>
  <path d="M104.6,16.4c0-1.3,0-2.6,0-3.9c0-0.4,0-0.4-0.4-0.4c-0.7,0-1.4,0-2.1,0c-0.3,0-0.4,0-0.4-0.4c0-1.4,0-2.8,0-4.1
		c0-0.4,0-0.4,0.4-0.4c0.7,0,1.4,0,2.1,0c0.4,0,0.4,0,0.4-0.4c0-1.4,0-2.8,0-4.3c0-0.5,0-0.5,0.5-0.5c1.3,0,2.6,0,3.9,0
		c0.5,0,0.5,0,0.5,0.5c0,1.3,0,2.6,0,3.9c0,0.1,0,0.2,0,0.3c0,0.4,0.1,0.4,0.4,0.4c0.8,0,1.6,0,2.4,0c0.3,0,0.5,0,0.8,0
		c0.7,0,0.7,0,0.7,0.7c0,1.1,0,2.2,0,3.3c0,0.2,0,0.3,0,0.5c0,0.4-0.1,0.5-0.5,0.5c-1.1,0-2.3,0-3.4,0c-0.5,0-0.5,0-0.5,0.5
		c0,2,0,3.9,0,5.9c0,0.4,0,0.8,0.1,1.2c0.1,0.5,0.4,0.7,0.8,0.9c0.4,0.2,0.8,0.2,1.2,0.2c0.4,0,0.8,0,1.2,0c0.2,0,0.4-0.1,0.6-0.1
		c0.3-0.1,0.4,0,0.4,0.3c0,0.1,0,0.2,0,0.3c0,0.9,0,1.8,0,2.7c0,0.5,0,0.6-0.5,0.7c-0.6,0.2-1.3,0.4-1.9,0.4c-0.2,0-0.3,0.1-0.5,0.1
		c-0.4,0-0.8,0-1.2,0c-0.2,0-0.3-0.1-0.5-0.1c-1-0.1-1.8-0.4-2.6-1c-0.7-0.5-1.3-1.2-1.6-2.1c-0.2-0.6-0.4-1.2-0.4-1.8
		C104.6,19,104.6,17.7,104.6,16.4C104.6,16.4,104.6,16.4,104.6,16.4z">
  </path>
  <path d="M81.8,16.1c0,2.7,0,5.4,0,8.2c0,0.1,0,0.3,0,0.4c0,0.2-0.1,0.3-0.3,0.3c-0.1,0-0.2,0-0.3,0c-1.3,0-2.5,0-3.8,0
		c-0.6,0-0.6,0-0.6-0.6c0-5,0-10.1,0-15.1c0-0.5,0-1.1,0-1.6c0-0.4,0-0.5,0.5-0.5c1.3,0,2.7,0,4,0c0.4,0,0.5,0,0.5,0.5
		c0,2.3,0,4.6,0,7C81.8,15.1,81.8,15.6,81.8,16.1z">
  </path>
  <path d="M50.3,16.1c0-2.7,0-5.3,0-8c0-0.1,0-0.2,0-0.3c0-0.5,0-0.6,0.6-0.6c0.8,0,1.7,0,2.5,0c0.5,0,0.9,0,1.4,0
		c0.3,0,0.4,0.1,0.4,0.4c0,0.1,0,0.2,0,0.3c0,5.5,0,11,0,16.5c0,0.6,0,0.6-0.6,0.6c-1.2,0-2.5,0-3.7,0c-0.5,0-0.5,0-0.5-0.5
		C50.3,21.7,50.3,18.9,50.3,16.1z">
  </path>
  <path d="M82.2,3c0.1,1.6-1.4,3-2.9,2.9c-1.7-0.1-2.9-1.2-2.9-2.9c0-1.6,1.2-2.9,3-2.9C80.8,0,82.3,1.3,82.2,3z">
  </path>
  <path d="M52.7,0c1.6-0.1,3,1.4,2.9,3c0,1.7-1.3,2.9-3,2.9c-1.6,0-2.9-1.3-2.9-2.9C49.7,1.5,51.1-0.1,52.7,0z">
  </path>
  <path d="M27.2,25c-1.6,0.1-3-1.4-2.9-2.9c0-1.7,1.3-2.9,3-3c1.6,0,2.9,1.2,2.9,3C30.1,23.6,28.8,25.1,27.2,25z">
  </path>
 </g>
</svg>